<?xml version="1.0" encoding="utf-8"?>
<Project name="Pie Pivot-o Video compilation without animations" themeId="0" version="65540" templateID="SimpleProjectTemplate">
  <MediaItems>
    <MediaItem id="17" filePath="C:\Users\SeanPM\Downloads\Pie Pivot-o Archive\16\The Magic School Bus YTP Collab.mp4" arWidth="1280" arHeight="720" duration="1620.9192859" songTitle="" songArtist="" songAlbum="" songCopyrightUrl="" songArtistUrl="" songAudioFileUrl="" stabilizationMode="0" mediaItemType="1" />
    <MediaItem id="18" filePath="C:\Users\SeanPM\Downloads\Pie Pivot-o Archive\17\YTP - Squidward Eats Canned Hams At The Pizza Bowl.mp4" arWidth="1280" arHeight="720" duration="201.68852219999999" songTitle="" songArtist="" songAlbum="" songCopyrightUrl="" songArtistUrl="" songAudioFileUrl="" stabilizationMode="0" mediaItemType="1" />
    <MediaItem id="1" filePath="C:\Users\SeanPM\Downloads\Pie Pivot-o Archive\01\(BAD) YTP Spingebill'sEarrape Adventure.mp4" arWidth="1280" arHeight="720" duration="260.99996650000003" songTitle="" songArtist="" songAlbum="" songCopyrightUrl="" songArtistUrl="" songAudioFileUrl="" stabilizationMode="0" mediaItemType="1" />
    <MediaItem id="19" filePath="C:\Users\SeanPM\Downloads\Pie Pivot-o Archive\18\Pewdiepie breaks reality as we know it.mp4" arWidth="1280" arHeight="720" duration="13.5604444" songTitle="" songArtist="" songAlbum="" songCopyrightUrl="" songArtistUrl="" songAudioFileUrl="" stabilizationMode="0" mediaItemType="1" />
    <MediaItem id="20" filePath="C:\Users\SeanPM\Downloads\Pie Pivot-o Archive\19\youtube poop raywilliamjohnson poops!.mp4" arWidth="320" arHeight="240" duration="153.18199989999999" songTitle="" songArtist="" songAlbum="" songCopyrightUrl="" songArtistUrl="" songAudioFileUrl="" stabilizationMode="0" mediaItemType="1" />
    <MediaItem id="3" filePath="C:\Users\SeanPM\Downloads\Pie Pivot-o Archive\02\Youtube Poop- Spongebob Drinks Battery Acid.mp4" arWidth="1280" arHeight="720" duration="156.96663319999999" songTitle="" songArtist="" songAlbum="" songCopyrightUrl="" songArtistUrl="" songAudioFileUrl="" stabilizationMode="0" mediaItemType="1" />
    <MediaItem id="21" filePath="C:\Users\SeanPM\Downloads\Pie Pivot-o Archive\20\YTP - Spingebill's Bizarre Revolution.mp4" arWidth="1280" arHeight="720" duration="277.84996660000002" songTitle="" songArtist="" songAlbum="" songCopyrightUrl="" songArtistUrl="" songAudioFileUrl="" stabilizationMode="0" mediaItemType="1" />
    <MediaItem id="4" filePath="C:\Users\SeanPM\Downloads\Pie Pivot-o Archive\03\(BAD)Youtube Poop - Don't Hug Me, I'm Socially Impaired.mp4" arWidth="1280" arHeight="720" duration="225.45855850000001" songTitle="" songArtist="" songAlbum="" songCopyrightUrl="" songArtistUrl="" songAudioFileUrl="" stabilizationMode="0" mediaItemType="1" />
    <MediaItem id="22" filePath="C:\Users\SeanPM\Downloads\Pie Pivot-o Archive\21\AMERICA.mp4" arWidth="1280" arHeight="720" duration="10.681177699999999" songTitle="" songArtist="" songAlbum="" songCopyrightUrl="" songArtistUrl="" songAudioFileUrl="" stabilizationMode="0" mediaItemType="1" />
    <MediaItem id="5" filePath="C:\Users\SeanPM\Downloads\Pie Pivot-o Archive\04\Youtube Poop - Spingebill Descends To The Afterlife.mp4" arWidth="1280" arHeight="720" duration="211.8449449" songTitle="" songArtist="" songAlbum="" songCopyrightUrl="" songArtistUrl="" songAudioFileUrl="" stabilizationMode="0" mediaItemType="1" />
    <MediaItem id="23" filePath="C:\Users\SeanPM\Downloads\Pie Pivot-o Archive\22\YTP - Squidward and the Canned Bread Epidemic 2.mp4" arWidth="1280" arHeight="720" duration="311.58856659999998" songTitle="" songArtist="" songAlbum="" songCopyrightUrl="" songArtistUrl="" songAudioFileUrl="" stabilizationMode="0" mediaItemType="1" />
    <MediaItem id="6" filePath="C:\Users\SeanPM\Downloads\Pie Pivot-o Archive\05\Youtube Poop - Squidward Disrupts the Space-Time Continuum.mp4" arWidth="1280" arHeight="720" duration="389.44507770000001" songTitle="" songArtist="" songAlbum="" songCopyrightUrl="" songArtistUrl="" songAudioFileUrl="" stabilizationMode="0" mediaItemType="1" />
    <MediaItem id="24" filePath="C:\Users\SeanPM\Downloads\Pie Pivot-o Archive\23\why do good girls like bad guys ðŸ˜¤.mp4" arWidth="652" arHeight="480" duration="13.561" songTitle="" songArtist="" songAlbum="" songCopyrightUrl="" songArtistUrl="" songAudioFileUrl="" stabilizationMode="0" mediaItemType="1" />
    <MediaItem id="7" filePath="C:\Users\SeanPM\Downloads\Pie Pivot-o Archive\06\Youtube Poop - Elmo is Constipated.mp4" arWidth="1280" arHeight="720" duration="110.27681010000001" songTitle="" songArtist="" songAlbum="" songCopyrightUrl="" songArtistUrl="" songAudioFileUrl="" stabilizationMode="0" mediaItemType="1" />
    <MediaItem id="25" filePath="C:\Users\SeanPM\Downloads\Pie Pivot-o Archive\24\Sans Phase.mp4" arWidth="1280" arHeight="720" duration="7.2214" songTitle="" songArtist="" songAlbum="" songCopyrightUrl="" songArtistUrl="" songAudioFileUrl="" stabilizationMode="0" mediaItemType="1" />
    <MediaItem id="8" filePath="C:\Users\SeanPM\Downloads\Pie Pivot-o Archive\07\(Meh) Youtube Poop - Spongebob Re-enacts 420.mp4" arWidth="1280" arHeight="720" duration="260.25999330000002" songTitle="" songArtist="" songAlbum="" songCopyrightUrl="" songArtistUrl="" songAudioFileUrl="" stabilizationMode="0" mediaItemType="1" />
    <MediaItem id="26" filePath="C:\Users\SeanPM\Downloads\Pie Pivot-o Archive\25\The Goosebumps Mini-YTP Collab.mp4" arWidth="1280" arHeight="720" duration="816.48320309999997" songTitle="" songArtist="" songAlbum="" songCopyrightUrl="" songArtistUrl="" songAudioFileUrl="" stabilizationMode="0" mediaItemType="1" />
    <MediaItem id="9" filePath="C:\Users\SeanPM\Downloads\Pie Pivot-o Archive\08\Youtube Poop - Michael Rosen Bombs McDonald's.mp4" arWidth="854" arHeight="480" duration="173.36099999999999" songTitle="" songArtist="" songAlbum="" songCopyrightUrl="" songArtistUrl="" songAudioFileUrl="" stabilizationMode="0" mediaItemType="1" />
    <MediaItem id="27" filePath="C:\Users\SeanPM\Downloads\Pie Pivot-o Archive\26\YTP - I Don't Want It That Way.mp4" arWidth="1280" arHeight="720" duration="391.32586659999998" songTitle="" songArtist="" songAlbum="" songCopyrightUrl="" songArtistUrl="" songAudioFileUrl="" stabilizationMode="0" mediaItemType="1" />
    <MediaItem id="10" filePath="C:\Users\SeanPM\Downloads\Pie Pivot-o Archive\09\Youtube Poop - Mr. Krack's Steamed Clam Escapade.mp4" arWidth="1280" arHeight="720" duration="289.85622280000001" songTitle="" songArtist="" songAlbum="" songCopyrightUrl="" songArtistUrl="" songAudioFileUrl="" stabilizationMode="0" mediaItemType="1" />
    <MediaItem id="28" filePath="C:\Users\SeanPM\Downloads\Pie Pivot-o Archive\27\YTP - Spongebob's Hostile Christmas Expedition.mp4" arWidth="1280" arHeight="720" duration="235.70573329999999" songTitle="" songArtist="" songAlbum="" songCopyrightUrl="" songArtistUrl="" songAudioFileUrl="" stabilizationMode="0" mediaItemType="1" />
    <MediaItem id="11" filePath="C:\Users\SeanPM\Downloads\Pie Pivot-o Archive\10\Youtube Poop - Squidward and the Canned Bread Epidemic.mp4" arWidth="1280" arHeight="720" duration="238.0741888" songTitle="" songArtist="" songAlbum="" songCopyrightUrl="" songArtistUrl="" songAudioFileUrl="" stabilizationMode="0" mediaItemType="1" />
    <MediaItem id="29" filePath="C:\Users\SeanPM\Downloads\Pie Pivot-o Archive\28\Snake mains in a nutshell.mp4" arWidth="1280" arHeight="720" duration="13.328233300000001" songTitle="" songArtist="" songAlbum="" songCopyrightUrl="" songArtistUrl="" songAudioFileUrl="" stabilizationMode="0" mediaItemType="1" />
    <MediaItem id="12" filePath="C:\Users\SeanPM\Downloads\Pie Pivot-o Archive\11\YTP - Charmx Swallows A Giant Meatball.mp4" arWidth="1280" arHeight="720" duration="156.45633330000001" songTitle="" songArtist="" songAlbum="" songCopyrightUrl="" songArtistUrl="" songAudioFileUrl="" stabilizationMode="0" mediaItemType="1" />
    <MediaItem id="30" filePath="C:\Users\SeanPM\Downloads\Pie Pivot-o Archive\29\YTP - Shrek Practices A Roundhouse Kick.mp4" arWidth="1280" arHeight="720" duration="144.52095829999999" songTitle="" songArtist="" songAlbum="" songCopyrightUrl="" songArtistUrl="" songAudioFileUrl="" stabilizationMode="0" mediaItemType="1" />
    <MediaItem id="13" filePath="C:\Users\SeanPM\Downloads\Pie Pivot-o Archive\12\YTP - Spingebill Assembles A Team Of Idiots.mp4" arWidth="1280" arHeight="720" duration="401.61233329999999" songTitle="" songArtist="" songAlbum="" songCopyrightUrl="" songArtistUrl="" songAudioFileUrl="" stabilizationMode="0" mediaItemType="1" />
    <MediaItem id="31" filePath="C:\Users\SeanPM\Downloads\Pie Pivot-o Archive\30\Strongest Forward Aerial - Super Smash Bros. Ultimate.mp4" arWidth="1280" arHeight="720" duration="159.73006330000001" songTitle="" songArtist="" songAlbum="" songCopyrightUrl="" songArtistUrl="" songAudioFileUrl="" stabilizationMode="0" mediaItemType="1" />
    <MediaItem id="14" filePath="C:\Users\SeanPM\Downloads\Pie Pivot-o Archive\13\The Real YouTube Rewind 2017.mp4" arWidth="1280" arHeight="720" duration="239.95501110000001" songTitle="" songArtist="" songAlbum="" songCopyrightUrl="" songArtistUrl="" songAudioFileUrl="" stabilizationMode="0" mediaItemType="1" />
    <MediaItem id="15" filePath="C:\Users\SeanPM\Downloads\Pie Pivot-o Archive\14\YTP - Homalone.mp4" arWidth="1280" arHeight="720" duration="233.08189999999999" songTitle="" songArtist="" songAlbum="" songCopyrightUrl="" songArtistUrl="" songAudioFileUrl="" stabilizationMode="0" mediaItemType="1" />
    <MediaItem id="16" filePath="C:\Users\SeanPM\Downloads\Pie Pivot-o Archive\15\GET OUT OF CAR.mp4" arWidth="1280" arHeight="720" duration="43.026566600000002" songTitle="" songArtist="" songAlbum="" songCopyrightUrl="" songArtistUrl="" songAudioFileUrl="" stabilizationMode="0" mediaItemType="1" />
  </MediaItems>
  <Extents>
    <VideoClip extentID="34" gapBefore="0" mediaItemID="30" inTime="0" outTime="0" speed="1" stabilizationMode="0">
      <Effects />
      <Transitions />
      <BoundProperties>
        <BoundPropertyBool Name="Mute" Value="false" />
        <BoundPropertyInt Name="rotateStepNinety" Value="0" />
        <BoundPropertyFloat Name="Volume" Value="1" />
      </BoundProperties>
    </VideoClip>
    <VideoClip extentID="17" gapBefore="0" mediaItemID="13" inTime="0" outTime="0" speed="1" stabilizationMode="0">
      <Effects />
      <Transitions />
      <BoundProperties>
        <BoundPropertyBool Name="Mute" Value="false" />
        <BoundPropertyInt Name="rotateStepNinety" Value="0" />
        <BoundPropertyFloat Name="Volume" Value="1" />
      </BoundProperties>
    </VideoClip>
    <VideoClip extentID="35" gapBefore="0" mediaItemID="31" inTime="0" outTime="0" speed="1" stabilizationMode="0">
      <Effects />
      <Transitions />
      <BoundProperties>
        <BoundPropertyBool Name="Mute" Value="false" />
        <BoundPropertyInt Name="rotateStepNinety" Value="0" />
        <BoundPropertyFloat Name="Volume" Value="1" />
      </BoundProperties>
    </VideoClip>
    <VideoClip extentID="18" gapBefore="0" mediaItemID="14" inTime="0" outTime="0" speed="1" stabilizationMode="0">
      <Effects />
      <Transitions />
      <BoundProperties>
        <BoundPropertyBool Name="Mute" Value="false" />
        <BoundPropertyInt Name="rotateStepNinety" Value="0" />
        <BoundPropertyFloat Name="Volume" Value="1" />
      </BoundProperties>
    </VideoClip>
    <VideoClip extentID="19" gapBefore="0" mediaItemID="15" inTime="0" outTime="0" speed="1" stabilizationMode="0">
      <Effects />
      <Transitions />
      <BoundProperties>
        <BoundPropertyBool Name="Mute" Value="false" />
        <BoundPropertyInt Name="rotateStepNinety" Value="0" />
        <BoundPropertyFloat Name="Volume" Value="1" />
      </BoundProperties>
    </VideoClip>
    <VideoClip extentID="20" gapBefore="0" mediaItemID="16" inTime="0" outTime="0" speed="1" stabilizationMode="0">
      <Effects />
      <Transitions />
      <BoundProperties>
        <BoundPropertyBool Name="Mute" Value="false" />
        <BoundPropertyInt Name="rotateStepNinety" Value="0" />
        <BoundPropertyFloat Name="Volume" Value="1" />
      </BoundProperties>
    </VideoClip>
    <VideoClip extentID="21" gapBefore="0" mediaItemID="17" inTime="0" outTime="0" speed="1" stabilizationMode="0">
      <Effects />
      <Transitions />
      <BoundProperties>
        <BoundPropertyBool Name="Mute" Value="false" />
        <BoundPropertyInt Name="rotateStepNinety" Value="0" />
        <BoundPropertyFloat Name="Volume" Value="1" />
      </BoundProperties>
    </VideoClip>
    <VideoClip extentID="22" gapBefore="0" mediaItemID="18" inTime="0" outTime="0" speed="1" stabilizationMode="0">
      <Effects />
      <Transitions />
      <BoundProperties>
        <BoundPropertyBool Name="Mute" Value="false" />
        <BoundPropertyInt Name="rotateStepNinety" Value="0" />
        <BoundPropertyFloat Name="Volume" Value="1" />
      </BoundProperties>
    </VideoClip>
    <VideoClip extentID="5" gapBefore="0" mediaItemID="1" inTime="0" outTime="0" speed="1" stabilizationMode="0">
      <Effects />
      <Transitions />
      <BoundProperties>
        <BoundPropertyBool Name="Mute" Value="false" />
        <BoundPropertyInt Name="rotateStepNinety" Value="0" />
        <BoundPropertyFloat Name="Volume" Value="1" />
      </BoundProperties>
    </VideoClip>
    <VideoClip extentID="23" gapBefore="0" mediaItemID="19" inTime="0" outTime="0" speed="1" stabilizationMode="0">
      <Effects />
      <Transitions />
      <BoundProperties>
        <BoundPropertyBool Name="Mute" Value="false" />
        <BoundPropertyInt Name="rotateStepNinety" Value="0" />
        <BoundPropertyFloat Name="Volume" Value="1" />
      </BoundProperties>
    </VideoClip>
    <VideoClip extentID="24" gapBefore="0" mediaItemID="20" inTime="0" outTime="0" speed="1" stabilizationMode="0">
      <Effects />
      <Transitions />
      <BoundProperties>
        <BoundPropertyBool Name="Mute" Value="false" />
        <BoundPropertyInt Name="rotateStepNinety" Value="0" />
        <BoundPropertyFloat Name="Volume" Value="1" />
      </BoundProperties>
    </VideoClip>
    <VideoClip extentID="7" gapBefore="0" mediaItemID="3" inTime="0" outTime="0" speed="1" stabilizationMode="0">
      <Effects />
      <Transitions />
      <BoundProperties>
        <BoundPropertyBool Name="Mute" Value="false" />
        <BoundPropertyInt Name="rotateStepNinety" Value="0" />
        <BoundPropertyFloat Name="Volume" Value="1" />
      </BoundProperties>
    </VideoClip>
    <VideoClip extentID="25" gapBefore="0" mediaItemID="21" inTime="0" outTime="0" speed="1" stabilizationMode="0">
      <Effects />
      <Transitions />
      <BoundProperties>
        <BoundPropertyBool Name="Mute" Value="false" />
        <BoundPropertyInt Name="rotateStepNinety" Value="0" />
        <BoundPropertyFloat Name="Volume" Value="1" />
      </BoundProperties>
    </VideoClip>
    <VideoClip extentID="8" gapBefore="0" mediaItemID="4" inTime="0" outTime="0" speed="1" stabilizationMode="0">
      <Effects />
      <Transitions />
      <BoundProperties>
        <BoundPropertyBool Name="Mute" Value="false" />
        <BoundPropertyInt Name="rotateStepNinety" Value="0" />
        <BoundPropertyFloat Name="Volume" Value="1" />
      </BoundProperties>
    </VideoClip>
    <VideoClip extentID="26" gapBefore="0" mediaItemID="22" inTime="0" outTime="0" speed="1" stabilizationMode="0">
      <Effects />
      <Transitions />
      <BoundProperties>
        <BoundPropertyBool Name="Mute" Value="false" />
        <BoundPropertyInt Name="rotateStepNinety" Value="0" />
        <BoundPropertyFloat Name="Volume" Value="1" />
      </BoundProperties>
    </VideoClip>
    <VideoClip extentID="9" gapBefore="0" mediaItemID="5" inTime="0" outTime="0" speed="1" stabilizationMode="0">
      <Effects />
      <Transitions />
      <BoundProperties>
        <BoundPropertyBool Name="Mute" Value="false" />
        <BoundPropertyInt Name="rotateStepNinety" Value="0" />
        <BoundPropertyFloat Name="Volume" Value="1" />
      </BoundProperties>
    </VideoClip>
    <VideoClip extentID="27" gapBefore="0" mediaItemID="23" inTime="0" outTime="0" speed="1" stabilizationMode="0">
      <Effects />
      <Transitions />
      <BoundProperties>
        <BoundPropertyBool Name="Mute" Value="false" />
        <BoundPropertyInt Name="rotateStepNinety" Value="0" />
        <BoundPropertyFloat Name="Volume" Value="1" />
      </BoundProperties>
    </VideoClip>
    <VideoClip extentID="10" gapBefore="0" mediaItemID="6" inTime="0" outTime="0" speed="1" stabilizationMode="0">
      <Effects />
      <Transitions />
      <BoundProperties>
        <BoundPropertyBool Name="Mute" Value="false" />
        <BoundPropertyInt Name="rotateStepNinety" Value="0" />
        <BoundPropertyFloat Name="Volume" Value="1" />
      </BoundProperties>
    </VideoClip>
    <VideoClip extentID="28" gapBefore="0" mediaItemID="24" inTime="0" outTime="0" speed="1" stabilizationMode="0">
      <Effects />
      <Transitions />
      <BoundProperties>
        <BoundPropertyBool Name="Mute" Value="false" />
        <BoundPropertyInt Name="rotateStepNinety" Value="0" />
        <BoundPropertyFloat Name="Volume" Value="1" />
      </BoundProperties>
    </VideoClip>
    <VideoClip extentID="11" gapBefore="0" mediaItemID="7" inTime="0" outTime="0" speed="1" stabilizationMode="0">
      <Effects />
      <Transitions />
      <BoundProperties>
        <BoundPropertyBool Name="Mute" Value="false" />
        <BoundPropertyInt Name="rotateStepNinety" Value="0" />
        <BoundPropertyFloat Name="Volume" Value="1" />
      </BoundProperties>
    </VideoClip>
    <VideoClip extentID="29" gapBefore="0" mediaItemID="25" inTime="0" outTime="0" speed="1" stabilizationMode="0">
      <Effects />
      <Transitions />
      <BoundProperties>
        <BoundPropertyBool Name="Mute" Value="false" />
        <BoundPropertyInt Name="rotateStepNinety" Value="0" />
        <BoundPropertyFloat Name="Volume" Value="1" />
      </BoundProperties>
    </VideoClip>
    <VideoClip extentID="12" gapBefore="0" mediaItemID="8" inTime="0" outTime="0" speed="1" stabilizationMode="0">
      <Effects />
      <Transitions />
      <BoundProperties>
        <BoundPropertyBool Name="Mute" Value="false" />
        <BoundPropertyInt Name="rotateStepNinety" Value="0" />
        <BoundPropertyFloat Name="Volume" Value="1" />
      </BoundProperties>
    </VideoClip>
    <VideoClip extentID="30" gapBefore="0" mediaItemID="26" inTime="0" outTime="0" speed="1" stabilizationMode="0">
      <Effects />
      <Transitions />
      <BoundProperties>
        <BoundPropertyBool Name="Mute" Value="false" />
        <BoundPropertyInt Name="rotateStepNinety" Value="0" />
        <BoundPropertyFloat Name="Volume" Value="1" />
      </BoundProperties>
    </VideoClip>
    <VideoClip extentID="13" gapBefore="0" mediaItemID="9" inTime="0" outTime="0" speed="1" stabilizationMode="0">
      <Effects />
      <Transitions />
      <BoundProperties>
        <BoundPropertyBool Name="Mute" Value="false" />
        <BoundPropertyInt Name="rotateStepNinety" Value="0" />
        <BoundPropertyFloat Name="Volume" Value="1" />
      </BoundProperties>
    </VideoClip>
    <VideoClip extentID="31" gapBefore="0" mediaItemID="27" inTime="0" outTime="0" speed="1" stabilizationMode="0">
      <Effects />
      <Transitions />
      <BoundProperties>
        <BoundPropertyBool Name="Mute" Value="false" />
        <BoundPropertyInt Name="rotateStepNinety" Value="0" />
        <BoundPropertyFloat Name="Volume" Value="1" />
      </BoundProperties>
    </VideoClip>
    <VideoClip extentID="14" gapBefore="0" mediaItemID="10" inTime="0" outTime="0" speed="1" stabilizationMode="0">
      <Effects />
      <Transitions />
      <BoundProperties>
        <BoundPropertyBool Name="Mute" Value="false" />
        <BoundPropertyInt Name="rotateStepNinety" Value="0" />
        <BoundPropertyFloat Name="Volume" Value="1" />
      </BoundProperties>
    </VideoClip>
    <VideoClip extentID="32" gapBefore="0" mediaItemID="28" inTime="0" outTime="0" speed="1" stabilizationMode="0">
      <Effects />
      <Transitions />
      <BoundProperties>
        <BoundPropertyBool Name="Mute" Value="false" />
        <BoundPropertyInt Name="rotateStepNinety" Value="0" />
        <BoundPropertyFloat Name="Volume" Value="1" />
      </BoundProperties>
    </VideoClip>
    <VideoClip extentID="15" gapBefore="0" mediaItemID="11" inTime="0" outTime="0" speed="1" stabilizationMode="0">
      <Effects />
      <Transitions />
      <BoundProperties>
        <BoundPropertyBool Name="Mute" Value="false" />
        <BoundPropertyInt Name="rotateStepNinety" Value="0" />
        <BoundPropertyFloat Name="Volume" Value="1" />
      </BoundProperties>
    </VideoClip>
    <VideoClip extentID="33" gapBefore="0" mediaItemID="29" inTime="0" outTime="0" speed="1" stabilizationMode="0">
      <Effects />
      <Transitions />
      <BoundProperties>
        <BoundPropertyBool Name="Mute" Value="false" />
        <BoundPropertyInt Name="rotateStepNinety" Value="0" />
        <BoundPropertyFloat Name="Volume" Value="1" />
      </BoundProperties>
    </VideoClip>
    <VideoClip extentID="16" gapBefore="0" mediaItemID="12" inTime="0" outTime="0" speed="1" stabilizationMode="0">
      <Effects />
      <Transitions />
      <BoundProperties>
        <BoundPropertyBool Name="Mute" Value="false" />
        <BoundPropertyInt Name="rotateStepNinety" Value="0" />
        <BoundPropertyFloat Name="Volume" Value="1" />
      </BoundProperties>
    </VideoClip>
    <ExtentSelector extentID="1" gapBefore="0" primaryTrack="true">
      <Effects />
      <Transitions />
      <BoundProperties />
      <ExtentRefs>
        <ExtentRef id="5" />
        <ExtentRef id="7" />
        <ExtentRef id="8" />
        <ExtentRef id="9" />
        <ExtentRef id="10" />
        <ExtentRef id="11" />
        <ExtentRef id="12" />
        <ExtentRef id="13" />
        <ExtentRef id="14" />
        <ExtentRef id="15" />
        <ExtentRef id="16" />
        <ExtentRef id="17" />
        <ExtentRef id="18" />
        <ExtentRef id="19" />
        <ExtentRef id="20" />
        <ExtentRef id="21" />
        <ExtentRef id="22" />
        <ExtentRef id="23" />
        <ExtentRef id="24" />
        <ExtentRef id="25" />
        <ExtentRef id="26" />
        <ExtentRef id="27" />
        <ExtentRef id="28" />
        <ExtentRef id="29" />
        <ExtentRef id="30" />
        <ExtentRef id="31" />
        <ExtentRef id="32" />
        <ExtentRef id="33" />
        <ExtentRef id="34" />
        <ExtentRef id="35" />
      </ExtentRefs>
    </ExtentSelector>
    <ExtentSelector extentID="2" gapBefore="0" primaryTrack="false">
      <Effects />
      <Transitions />
      <BoundProperties />
      <ExtentRefs />
    </ExtentSelector>
    <ExtentSelector extentID="3" gapBefore="0" primaryTrack="false">
      <Effects />
      <Transitions />
      <BoundProperties />
      <ExtentRefs />
    </ExtentSelector>
    <ExtentSelector extentID="4" gapBefore="0" primaryTrack="false">
      <Effects />
      <Transitions />
      <BoundProperties />
      <ExtentRefs />
    </ExtentSelector>
  </Extents>
  <BoundPlaceholders>
    <BoundPlaceholder placeholderID="SingleExtentView" extentID="0" />
    <BoundPlaceholder placeholderID="Main" extentID="1" />
    <BoundPlaceholder placeholderID="SoundTrack" extentID="2" />
    <BoundPlaceholder placeholderID="Narration" extentID="3" />
    <BoundPlaceholder placeholderID="Text" extentID="4" />
  </BoundPlaceholders>
  <BoundProperties>
    <BoundPropertyFloatSet Name="AspectRatio">
      <BoundPropertyFloatElement Value="1.7777776718139648" />
    </BoundPropertyFloatSet>
    <BoundPropertyFloat Name="DuckedNarrationAndSoundTrackMix" Value="0.5" />
    <BoundPropertyFloat Name="DuckedVideoAndNarrationMix" Value="0" />
    <BoundPropertyFloat Name="DuckedVideoAndSoundTrackMix" Value="0" />
    <BoundPropertyFloat Name="SoundTrackMix" Value="0" />
  </BoundProperties>
  <ThemeOperationLog themeID="0">
    <MonolithicThemeOperations />
  </ThemeOperationLog>
  <AudioDuckingProperties emphasisPlaceholderID="Narration" />
</Project>